name rise44.8762peak52.3436fall86.788.mot
datacolumns 19
datarows 26
range 11.20828800000000 11.24995700000000
endheader
time	ground_force1_vx	ground_force1_vy	ground_force1_vz	ground_force1_px	ground_force1_py	ground_force1_pz	ground_force2_vx	ground_force2_vy	ground_force2_vz	ground_force2_px	ground_force2_py	ground_force2_pz	ground_torque1_x	ground_torque1_y	ground_torque1_z	ground_torque2_x	ground_torque2_y	ground_torque2_z	
11.20828800000000	-6.07920200000000	44.31856800000000	-10.79608100000000	0.25525500000000	0.00000000000000	0.10842200000000	-47.65856100000000	790.19259199999999	-55.34272900000000	0.07786200000000	0.00000000000000	-0.08263300000000	0.00000000000000	-6.06609400000000	0.00000000000000	0.00000000000000	-14.32631400000000	0.00000000000000	
11.20995600000000	-6.61867800000000	52.04189300000000	-12.17020500000000	0.26151700000000	0.00000000000000	0.10912200000000	-48.39371800000000	787.81565000000001	-55.04689200000000	0.07700800000000	0.00000000000000	-0.08256000000000	0.00000000000000	-6.94962800000000	0.00000000000000	0.00000000000000	-14.33091500000000	0.00000000000000	
11.21164100000000	-7.02747400000000	59.88673000000000	-13.42873200000000	0.26719800000000	0.00000000000000	0.10976500000000	-49.14111500000000	785.29839300000003	-54.72525400000000	0.07616200000000	0.00000000000000	-0.08248300000000	0.00000000000000	-7.78831800000000	0.00000000000000	0.00000000000000	-14.33778500000000	0.00000000000000	
11.21329000000000	-7.28783900000000	67.75345100000000	-14.54275700000000	0.27239000000000	0.00000000000000	0.11036000000000	-49.89986200000000	782.63783899999999	-54.37766400000000	0.07532400000000	0.00000000000000	-0.08240300000000	0.00000000000000	-8.56363800000000	0.00000000000000	0.00000000000000	-14.34682200000000	0.00000000000000	
11.21495600000000	-7.38905400000000	75.56586799999999	-15.49272000000000	0.27716800000000	0.00000000000000	0.11091400000000	-50.66897700000000	779.83100100000001	-54.00401500000000	0.07449600000000	0.00000000000000	-0.08231800000000	0.00000000000000	-9.26216900000000	0.00000000000000	0.00000000000000	-14.35791000000000	0.00000000000000	
11.21662500000000	-7.32731200000000	83.27366900000000	-16.26858300000000	0.28159000000000	0.00000000000000	0.11143200000000	-51.44738300000000	776.87489100000005	-53.60424200000000	0.07367700000000	0.00000000000000	-0.08223100000000	0.00000000000000	-9.87589300000000	0.00000000000000	0.00000000000000	-14.37091200000000	0.00000000000000	
11.21828500000000	-7.10507300000000	90.85230600000000	-16.86919600000000	0.28570300000000	0.00000000000000	0.11192100000000	-52.23391400000000	773.76652899999999	-53.17832300000000	0.07286900000000	0.00000000000000	-0.08213900000000	0.00000000000000	-10.40199500000000	0.00000000000000	0.00000000000000	-14.38567300000000	0.00000000000000	
11.21995500000000	-6.73000600000000	98.30078300000000	-17.30103900000000	0.28954700000000	0.00000000000000	0.11238200000000	-53.02731000000000	770.50295300000005	-52.72628200000000	0.07207300000000	0.00000000000000	-0.08204300000000	0.00000000000000	-10.84227700000000	0.00000000000000	0.00000000000000	-14.40202000000000	0.00000000000000	
11.22164000000000	-6.21370100000000	105.63788599999999	-17.57657100000000	0.29315300000000	0.00000000000000	0.11282100000000	-53.82622300000000	767.08122400000002	-52.24818900000000	0.07128900000000	0.00000000000000	-0.08194400000000	0.00000000000000	-11.20227800000000	0.00000000000000	0.00000000000000	-14.41976300000000	0.00000000000000	
11.22329100000000	-5.57028200000000	112.89743600000000	-17.71236200000000	0.29654900000000	0.00000000000000	0.11323900000000	-54.62921800000000	763.49844099999996	-51.74415800000000	0.07051800000000	0.00000000000000	-0.08184000000000	0.00000000000000	-11.49025000000000	0.00000000000000	0.00000000000000	-14.43869200000000	0.00000000000000	
11.22495200000000	-4.81506400000000	120.12313100000000	-17.72722700000000	0.29975500000000	0.00000000000000	0.11363800000000	-55.43477400000000	759.75174900000002	-51.21435300000000	0.06976100000000	0.00000000000000	-0.08173300000000	0.00000000000000	-11.71608000000000	0.00000000000000	0.00000000000000	-14.45858100000000	0.00000000000000	
11.22662500000000	-3.96334300000000	127.36347300000000	-17.64049600000000	0.30279100000000	0.00000000000000	0.11402200000000	-56.24128800000000	755.83835199999999	-50.65898300000000	0.06901900000000	0.00000000000000	-0.08162100000000	0.00000000000000	-11.89026100000000	0.00000000000000	0.00000000000000	-14.47918800000000	0.00000000000000	
11.22828600000000	-3.02940400000000	134.66716000000000	-17.47054600000000	0.30567200000000	0.00000000000000	0.11439000000000	-57.04708000000000	751.75552300000004	-50.07830600000000	0.06829200000000	0.00000000000000	-0.08150500000000	0.00000000000000	-12.02299800000000	0.00000000000000	0.00000000000000	-14.50025200000000	0.00000000000000	
11.22995800000000	-2.02578300000000	142.07923500000001	-17.23365600000000	0.30841200000000	0.00000000000000	0.11474600000000	-57.85039100000000	747.50061900000003	-49.47263000000000	0.06758000000000	0.00000000000000	-0.08138600000000	0.00000000000000	-12.12347800000000	0.00000000000000	0.00000000000000	-14.52149800000000	0.00000000000000	
11.23163500000000	-0.96279200000000	149.63815500000001	-16.94322700000000	0.31102100000000	0.00000000000000	0.11508900000000	-58.64939300000000	743.07109500000001	-48.84230900000000	0.06688600000000	0.00000000000000	-0.08126200000000	0.00000000000000	-12.19935300000000	0.00000000000000	0.00000000000000	-14.54263500000000	0.00000000000000	
11.23329200000000	0.15169000000000	157.37383600000001	-16.60935200000000	0.31350900000000	0.00000000000000	0.11542200000000	-59.44219200000000	738.46451500000001	-48.18774900000000	0.06620800000000	0.00000000000000	-0.08113300000000	0.00000000000000	-12.25642600000000	0.00000000000000	0.00000000000000	-14.56336000000000	0.00000000000000	
11.23495200000000	1.31221200000000	165.30664800000000	-16.23872200000000	0.31588500000000	0.00000000000000	0.11574400000000	-60.22682800000000	733.67857600000002	-47.50940300000000	0.06554800000000	0.00000000000000	-0.08100100000000	0.00000000000000	-12.29853600000000	0.00000000000000	0.00000000000000	-14.58335400000000	0.00000000000000	
11.23663500000000	2.51555400000000	173.44727700000001	-15.83479300000000	0.31815500000000	0.00000000000000	0.11605700000000	-61.00128700000000	728.71111199999996	-46.80777300000000	0.06490600000000	0.00000000000000	-0.08086400000000	0.00000000000000	-12.32760800000000	0.00000000000000	0.00000000000000	-14.60228800000000	0.00000000000000	
11.23828700000000	3.76038600000000	181.79728499999999	-15.39817500000000	0.32032400000000	0.00000000000000	0.11636200000000	-61.76350200000000	723.56012399999997	-46.08341000000000	0.06428200000000	0.00000000000000	-0.08072300000000	0.00000000000000	-12.34384900000000	0.00000000000000	0.00000000000000	-14.61982000000000	0.00000000000000	
11.23995700000000	5.04685900000000	190.35021499999999	-14.92716300000000	0.32239900000000	0.00000000000000	0.11665800000000	-62.51136000000000	718.22378300000003	-45.33691500000000	0.06367700000000	0.00000000000000	-0.08057800000000	0.00000000000000	-12.34603000000000	0.00000000000000	0.00000000000000	-14.63559900000000	0.00000000000000	
11.24163300000000	6.37613800000000	199.09304399999999	-14.41834400000000	0.32438300000000	0.00000000000000	0.11694800000000	-63.24270800000000	712.70046000000002	-44.56893300000000	0.06309100000000	0.00000000000000	-0.08042900000000	0.00000000000000	-12.33183300000000	0.00000000000000	0.00000000000000	-14.64926900000000	0.00000000000000	
11.24329800000000	7.74994500000000	208.00783200000001	-13.86722200000000	0.32628000000000	0.00000000000000	0.11723000000000	-63.95535900000000	706.98873400000002	-43.78015800000000	0.06252400000000	0.00000000000000	-0.08027500000000	0.00000000000000	-12.29822100000000	0.00000000000000	0.00000000000000	-14.66046100000000	0.00000000000000	
11.24495200000000	9.17014400000000	217.07338300000001	-13.26882100000000	0.32809200000000	0.00000000000000	0.11750600000000	-64.64709700000000	701.08740799999998	-42.97133100000000	0.06197600000000	0.00000000000000	-0.08011800000000	0.00000000000000	-12.24178900000000	0.00000000000000	0.00000000000000	-14.66880500000000	0.00000000000000	
11.24662000000000	10.63837600000000	226.26681800000000	-12.61820500000000	0.32982400000000	0.00000000000000	0.11777500000000	-65.31568700000000	694.99553000000003	-42.14323600000000	0.06144800000000	0.00000000000000	-0.07995600000000	0.00000000000000	-12.15909600000000	0.00000000000000	0.00000000000000	-14.67392500000000	0.00000000000000	
11.24828900000000	12.15577300000000	235.56495100000001	-11.91091500000000	0.33147600000000	0.00000000000000	0.11803900000000	-65.95887999999999	688.71240200000000	-41.29670100000000	0.06093800000000	0.00000000000000	-0.07979000000000	0.00000000000000	-12.04692700000000	0.00000000000000	0.00000000000000	-14.67544400000000	0.00000000000000	
11.24995700000000	13.72276200000000	244.94540100000000	-11.14329100000000	0.33305000000000	0.00000000000000	0.11829800000000	-66.57441900000001	682.23758999999995	-40.43259800000000	0.06044800000000	0.00000000000000	-0.07961900000000	0.00000000000000	-11.90251300000000	0.00000000000000	0.00000000000000	-14.67298200000000	0.00000000000000	
